<svg width="44" height="44" viewBox="0 0 44 44" fill="none" xmlns="http://www.w3.org/2000/svg">
<path d="M37.125 12.375H9.625C9.26033 12.375 8.91059 12.2301 8.65273 11.9723C8.39487 11.7144 8.25 11.3647 8.25 11C8.25 10.6353 8.39487 10.2856 8.65273 10.0277C8.91059 9.76987 9.26033 9.625 9.625 9.625H33C33.3647 9.625 33.7144 9.48013 33.9723 9.22227C34.2301 8.96441 34.375 8.61467 34.375 8.25C34.375 7.88533 34.2301 7.53559 33.9723 7.27773C33.7144 7.01987 33.3647 6.875 33 6.875H9.625C8.53098 6.875 7.48177 7.3096 6.70818 8.08318C5.9346 8.85677 5.5 9.90598 5.5 11V33C5.5 34.094 5.9346 35.1432 6.70818 35.9168C7.48177 36.6904 8.53098 37.125 9.625 37.125H37.125C37.8543 37.125 38.5538 36.8353 39.0695 36.3195C39.5853 35.8038 39.875 35.1043 39.875 34.375V15.125C39.875 14.3957 39.5853 13.6962 39.0695 13.1805C38.5538 12.6647 37.8543 12.375 37.125 12.375ZM30.9375 26.125C30.5296 26.125 30.1308 26.004 29.7916 25.7774C29.4525 25.5508 29.1881 25.2287 29.032 24.8518C28.8759 24.4749 28.835 24.0602 28.9146 23.6601C28.9942 23.26 29.1906 22.8925 29.4791 22.6041C29.7675 22.3156 30.135 22.1192 30.5351 22.0396C30.9352 21.96 31.3499 22.0009 31.7268 22.157C32.1037 22.3131 32.4258 22.5775 32.6524 22.9166C32.879 23.2558 33 23.6546 33 24.0625C33 24.6095 32.7827 25.1341 32.3959 25.5209C32.0091 25.9077 31.4845 26.125 30.9375 26.125Z" fill="white"/>
</svg>
