<svg width="23" height="23" viewBox="0 0 23 23" fill="none" xmlns="http://www.w3.org/2000/svg">
<path d="M18.2084 21.0832C17.1542 21.0832 16.2518 20.7078 15.5011 19.9571C14.7504 19.2064 14.375 18.304 14.375 17.2498V12.9373C14.375 12.2665 14.6066 11.6995 15.0698 11.2363C15.533 10.7731 16.1 10.5415 16.7709 10.5415C17.4417 10.5415 18.0087 10.7731 18.4719 11.2363C18.9351 11.6995 19.1667 12.2665 19.1667 12.9373V17.2498H17.25V12.9373C17.25 12.8096 17.2021 12.6978 17.1063 12.6019C17.0105 12.5061 16.8987 12.4582 16.7709 12.4582C16.6431 12.4582 16.5313 12.5061 16.4355 12.6019C16.3396 12.6978 16.2917 12.8096 16.2917 12.9373V17.2498C16.2917 17.7769 16.4792 18.2283 16.8542 18.604C17.2299 18.979 17.6813 19.1665 18.2084 19.1665C18.7355 19.1665 19.1868 18.979 19.5625 18.604C19.9375 18.2283 20.125 17.7769 20.125 17.2498V13.4165H22.0417V17.2498C22.0417 18.304 21.6664 19.2064 20.9157 19.9571C20.165 20.7078 19.2625 21.0832 18.2084 21.0832ZM2.87504 17.2498C2.34796 17.2498 1.8969 17.0623 1.52187 16.6873C1.14621 16.3116 0.958374 15.8603 0.958374 15.3332V3.83317C0.958374 3.30609 1.14621 2.85471 1.52187 2.47905C1.8969 2.10402 2.34796 1.9165 2.87504 1.9165H18.2084C18.7355 1.9165 19.1868 2.10402 19.5625 2.47905C19.9375 2.85471 20.125 3.30609 20.125 3.83317V9.58317H16.7709C15.8445 9.58317 15.0539 9.9106 14.399 10.5655C13.7441 11.2203 13.4167 12.0109 13.4167 12.9373V17.2498H2.87504ZM10.5417 10.5415L18.2084 5.74984V3.83317L10.5417 8.62484L2.87504 3.83317V5.74984L10.5417 10.5415Z" fill="white"/>
</svg>
