<svg width="30" height="31" viewBox="0 0 30 31" fill="none" xmlns="http://www.w3.org/2000/svg">
<path d="M8.125 22.6041L17.5 18.0833L21.875 8.39581L12.5 12.9166L8.125 22.6041ZM15 16.7916C14.6458 16.7916 14.3492 16.6676 14.11 16.4196C13.87 16.1725 13.75 15.866 13.75 15.5C13.75 15.134 13.87 14.827 14.11 14.579C14.3492 14.3319 14.6458 14.2083 15 14.2083C15.3542 14.2083 15.6513 14.3319 15.8913 14.579C16.1304 14.827 16.25 15.134 16.25 15.5C16.25 15.866 16.1304 16.1725 15.8913 16.4196C15.6513 16.6676 15.3542 16.7916 15 16.7916ZM15 28.4166C13.2708 28.4166 11.6458 28.0774 10.125 27.3988C8.60417 26.7211 7.28125 25.801 6.15625 24.6385C5.03125 23.476 4.14083 22.109 3.485 20.5375C2.82833 18.966 2.5 17.2868 2.5 15.5C2.5 13.7132 2.82833 12.034 3.485 10.4625C4.14083 8.89095 5.03125 7.52394 6.15625 6.36144C7.28125 5.19894 8.60417 4.27841 10.125 3.59985C11.6458 2.92216 13.2708 2.58331 15 2.58331C16.7292 2.58331 18.3542 2.92216 19.875 3.59985C21.3958 4.27841 22.7188 5.19894 23.8438 6.36144C24.9688 7.52394 25.8592 8.89095 26.515 10.4625C27.1717 12.034 27.5 13.7132 27.5 15.5C27.5 17.2868 27.1717 18.966 26.515 20.5375C25.8592 22.109 24.9688 23.476 23.8438 24.6385C22.7188 25.801 21.3958 26.7211 19.875 27.3988C18.3542 28.0774 16.7292 28.4166 15 28.4166Z" fill="#ED2438"/>
</svg>
