<svg width="88" height="88" viewBox="0 0 88 88" fill="none" xmlns="http://www.w3.org/2000/svg">
<g filter="url(#filter0_d_37_17)">
<path d="M44 58.6666L58.6667 44L44 29.3333L38.8667 34.4666L44.7334 40.3333H29.3334V47.6666H44.7334L38.8667 53.5333L44 58.6666ZM44 80.6666C38.9278 80.6666 34.1612 79.7035 29.7 77.7773C25.2389 75.8535 21.3584 73.2416 18.0584 69.9416C14.7584 66.6416 12.1465 62.7611 10.2227 58.3C8.29649 53.8389 7.33337 49.0722 7.33337 44C7.33337 38.9278 8.29649 34.1611 10.2227 29.7C12.1465 25.2389 14.7584 21.3583 18.0584 18.0583C21.3584 14.7583 25.2389 12.1452 29.7 10.219C34.1612 8.2952 38.9278 7.33331 44 7.33331C49.0723 7.33331 53.8389 8.2952 58.3 10.219C62.7611 12.1452 66.6417 14.7583 69.9417 18.0583C73.2417 21.3583 75.8536 25.2389 77.7774 29.7C79.7036 34.1611 80.6667 38.9278 80.6667 44C80.6667 49.0722 79.7036 53.8389 77.7774 58.3C75.8536 62.7611 73.2417 66.6416 69.9417 69.9416C66.6417 73.2416 62.7611 75.8535 58.3 77.7773C53.8389 79.7035 49.0723 80.6666 44 80.6666Z" fill="#ED2438"/>
</g>
<defs>
<filter id="filter0_d_37_17" x="-4" y="0" width="96" height="96" filterUnits="userSpaceOnUse" color-interpolation-filters="sRGB">
<feFlood flood-opacity="0" result="BackgroundImageFix"/>
<feColorMatrix in="SourceAlpha" type="matrix" values="0 0 0 0 0 0 0 0 0 0 0 0 0 0 0 0 0 0 127 0" result="hardAlpha"/>
<feOffset dy="4"/>
<feGaussianBlur stdDeviation="2"/>
<feColorMatrix type="matrix" values="0 0 0 0 0 0 0 0 0 0 0 0 0 0 0 0 0 0 0.25 0"/>
<feBlend mode="normal" in2="BackgroundImageFix" result="effect1_dropShadow_37_17"/>
<feBlend mode="normal" in="SourceGraphic" in2="effect1_dropShadow_37_17" result="shape"/>
</filter>
</defs>
</svg>
