<svg width="138" height="137" viewBox="0 0 138 137" fill="none" xmlns="http://www.w3.org/2000/svg">
<path d="M69 91.3334L92 68.5001L69 45.6667L60.95 53.6584L70.15 62.7917H46V74.2084H70.15L60.95 83.3417L69 91.3334ZM69 125.583C61.0458 125.583 53.5708 124.084 46.575 121.085C39.5792 118.09 33.4937 114.024 28.3188 108.887C23.1438 103.749 19.0478 97.7077 16.031 90.7626C13.0103 83.8174 11.5 76.3966 11.5 68.5001C11.5 60.6035 13.0103 53.1827 16.031 46.2376C19.0478 39.2924 23.1438 33.2511 28.3188 28.1136C33.4937 22.9761 39.5792 18.908 46.575 15.9092C53.5708 12.9142 61.0458 11.4167 69 11.4167C76.9542 11.4167 84.4292 12.9142 91.425 15.9092C98.4208 18.908 104.506 22.9761 109.681 28.1136C114.856 33.2511 118.952 39.2924 121.969 46.2376C124.99 53.1827 126.5 60.6035 126.5 68.5001C126.5 76.3966 124.99 83.8174 121.969 90.7626C118.952 97.7077 114.856 103.749 109.681 108.887C104.506 114.024 98.4208 118.09 91.425 121.085C84.4292 124.084 76.9542 125.583 69 125.583Z" fill="white"/>
</svg>
