<svg width="72" height="88" viewBox="0 0 72 88" fill="none" xmlns="http://www.w3.org/2000/svg">
<path d="M36 60.9253L41.04 54.8328L35.28 47.8699H50.4V39.1663H35.28L41.04 32.2034L36 26.1109L21.6 43.5181L36 60.9253ZM36 87.0362C31.02 87.0362 26.34 85.8931 21.96 83.6069C17.58 81.3237 13.77 78.2238 10.53 74.3071C7.29 70.3905 4.7256 65.7848 2.8368 60.4901C0.9456 55.1954 0 49.5381 0 43.5181C0 37.4981 0.9456 31.8407 2.8368 26.546C4.7256 21.2513 7.29 16.6457 10.53 12.729C13.77 8.81241 17.58 5.71102 21.96 3.42487C26.34 1.14162 31.02 0 36 0C40.98 0 45.66 1.14162 50.04 3.42487C54.42 5.71102 58.23 8.81241 61.47 12.729C64.71 16.6457 67.2744 21.2513 69.1632 26.546C71.0544 31.8407 72 37.4981 72 43.5181C72 49.5381 71.0544 55.1954 69.1632 60.4901C67.2744 65.7848 64.71 70.3905 61.47 74.3071C58.23 78.2238 54.42 81.3237 50.04 83.6069C45.66 85.8931 40.98 87.0362 36 87.0362ZM36 78.3326C44.04 78.3326 50.85 74.9599 56.43 68.2146C62.01 61.4693 64.8 53.2371 64.8 43.5181C64.8 33.799 62.01 25.5669 56.43 18.8216C50.85 12.0763 44.04 8.70362 36 8.70362C27.96 8.70362 21.15 12.0763 15.57 18.8216C9.99 25.5669 7.2 33.799 7.2 43.5181C7.2 53.2371 9.99 61.4693 15.57 68.2146C21.15 74.9599 27.96 78.3326 36 78.3326Z" fill="white"/>
</svg>
