<svg width="130" height="130" viewBox="0 0 130 130" fill="none" xmlns="http://www.w3.org/2000/svg">
<path d="M61.3437 83.0103C62.3367 84.0034 63.5789 84.4764 65.0703 84.4295C66.5581 84.3862 67.7985 83.868 68.7916 82.8749C69.7846 81.8819 70.2812 80.618 70.2812 79.0833C70.2812 77.5485 69.7846 76.2846 68.7916 75.2916L63.9166 70.4166H81.3853C82.9201 70.4166 84.1839 69.8966 85.177 68.8566C86.1701 67.8202 86.6666 66.5346 86.6666 64.9999C86.6666 63.4652 86.1484 62.1778 85.112 61.1378C84.072 60.1014 82.7846 59.5833 81.2499 59.5833H63.9166L68.927 54.5728C69.9201 53.5798 70.3949 52.3376 70.3516 50.8462C70.3046 49.3584 69.7846 48.118 68.7916 47.1249C67.7985 46.1319 66.5346 45.6353 64.9999 45.6353C63.4652 45.6353 62.2013 46.1319 61.2083 47.1249L47.1249 61.2083C46.1319 62.2013 45.6353 63.4652 45.6353 64.9999C45.6353 66.5346 46.1319 67.7985 47.1249 68.7916L61.3437 83.0103ZM64.9999 119.167C57.5069 119.167 50.4652 117.744 43.8749 114.898C37.2846 112.056 31.552 108.198 26.677 103.323C21.802 98.4478 17.9435 92.7152 15.1016 86.1249C12.256 79.5346 10.8333 72.493 10.8333 64.9999C10.8333 57.5069 12.256 50.4652 15.1016 43.8749C17.9435 37.2846 21.802 31.552 26.677 26.677C31.552 21.802 37.2846 17.9417 43.8749 15.0962C50.4652 12.2542 57.5069 10.8333 64.9999 10.8333C72.493 10.8333 79.5346 12.2542 86.1249 15.0962C92.7152 17.9417 98.4478 21.802 103.323 26.677C108.198 31.552 112.056 37.2846 114.898 43.8749C117.744 50.4652 119.167 57.5069 119.167 64.9999C119.167 72.493 117.744 79.5346 114.898 86.1249C112.056 92.7152 108.198 98.4478 103.323 103.323C98.4478 108.198 92.7152 112.056 86.1249 114.898C79.5346 117.744 72.493 119.167 64.9999 119.167Z" fill="white"/>
</svg>
