<svg width="88" height="88" viewBox="0 0 88 88" fill="none" xmlns="http://www.w3.org/2000/svg">
<g filter="url(#filter0_d_37_15)">
<path d="M41.5249 56.1916C42.1971 56.8639 43.038 57.1841 44.0476 57.1523C45.0547 57.123 45.8944 56.7722 46.5666 56.1C47.2388 55.4278 47.5749 54.5722 47.5749 53.5333C47.5749 52.4944 47.2388 51.6389 46.5666 50.9666L43.2666 47.6666H55.0916C56.1305 47.6666 56.986 47.3146 57.6583 46.6106C58.3305 45.9091 58.6666 45.0389 58.6666 44C58.6666 42.9611 58.3158 42.0896 57.6143 41.3856C56.9103 40.6841 56.0388 40.3333 54.9999 40.3333H43.2666L46.6583 36.9416C47.3305 36.2694 47.6519 35.4285 47.6226 34.419C47.5908 33.4119 47.2388 32.5722 46.5666 31.9C45.8944 31.2278 45.0388 30.8916 43.9999 30.8916C42.961 30.8916 42.1055 31.2278 41.4333 31.9L31.8999 41.4333C31.2277 42.1055 30.8916 42.9611 30.8916 44C30.8916 45.0389 31.2277 45.8944 31.8999 46.5666L41.5249 56.1916ZM43.9999 80.6666C38.9277 80.6666 34.161 79.7035 29.6999 77.7773C25.2388 75.8535 21.3583 73.2416 18.0583 69.9416C14.7583 66.6416 12.1464 62.7611 10.2226 58.3C8.29636 53.8389 7.33325 49.0722 7.33325 44C7.33325 38.9278 8.29636 34.1611 10.2226 29.7C12.1464 25.2389 14.7583 21.3583 18.0583 18.0583C21.3583 14.7583 25.2388 12.1452 29.6999 10.219C34.161 8.2952 38.9277 7.33331 43.9999 7.33331C49.0721 7.33331 53.8388 8.2952 58.2999 10.219C62.761 12.1452 66.6416 14.7583 69.9416 18.0583C73.2416 21.3583 75.8535 25.2389 77.7773 29.7C79.7035 34.1611 80.6666 38.9278 80.6666 44C80.6666 49.0722 79.7035 53.8389 77.7773 58.3C75.8535 62.7611 73.2416 66.6416 69.9416 69.9416C66.6416 73.2416 62.761 75.8535 58.2999 77.7773C53.8388 79.7035 49.0721 80.6666 43.9999 80.6666Z" fill="#ED2438"/>
</g>
<defs>
<filter id="filter0_d_37_15" x="-4" y="0" width="96" height="96" filterUnits="userSpaceOnUse" color-interpolation-filters="sRGB">
<feFlood flood-opacity="0" result="BackgroundImageFix"/>
<feColorMatrix in="SourceAlpha" type="matrix" values="0 0 0 0 0 0 0 0 0 0 0 0 0 0 0 0 0 0 127 0" result="hardAlpha"/>
<feOffset dy="4"/>
<feGaussianBlur stdDeviation="2"/>
<feColorMatrix type="matrix" values="0 0 0 0 0 0 0 0 0 0 0 0 0 0 0 0 0 0 0.25 0"/>
<feBlend mode="normal" in2="BackgroundImageFix" result="effect1_dropShadow_37_15"/>
<feBlend mode="normal" in="SourceGraphic" in2="effect1_dropShadow_37_15" result="shape"/>
</filter>
</defs>
</svg>
