<svg width="23" height="23" viewBox="0 0 23 23" fill="none" xmlns="http://www.w3.org/2000/svg">
<path d="M19.1667 11.5C18.9111 11.5 18.6837 11.408 18.4843 11.224C18.2844 11.0406 18.1684 10.8132 18.1365 10.5417C17.9288 9.05625 17.3021 7.79029 16.2562 6.74379C15.2097 5.69793 13.9437 5.07118 12.4583 4.86354C12.1868 4.8316 11.9594 4.71979 11.776 4.52812C11.592 4.33646 11.5 4.10486 11.5 3.83333C11.5 3.56181 11.5958 3.33404 11.7875 3.15004C11.9792 2.96668 12.2028 2.89097 12.4583 2.92292C14.4708 3.14653 16.1878 3.9691 17.6094 5.39062C19.0309 6.81215 19.8535 8.52917 20.0771 10.5417C20.109 10.7972 20.033 11.0208 19.849 11.2125C19.6656 11.4042 19.4382 11.5 19.1667 11.5ZM15.1656 11.5C14.958 11.5 14.7743 11.4281 14.6146 11.2844C14.4549 11.1406 14.3351 10.949 14.2552 10.7094C14.1274 10.2462 13.884 9.83474 13.525 9.47504C13.1653 9.11599 12.7538 8.87257 12.2906 8.74479C12.051 8.66493 11.8594 8.54514 11.7156 8.38542C11.5719 8.22569 11.5 8.03403 11.5 7.81042C11.5 7.49097 11.6118 7.23126 11.8354 7.03129C12.059 6.83196 12.3066 6.76424 12.5781 6.82812C13.4726 7.03576 14.2434 7.46286 14.8906 8.10942C15.5371 8.75661 15.9642 9.52743 16.1719 10.4219C16.2358 10.6934 16.1639 10.941 15.9562 11.1646C15.7486 11.3882 15.4851 11.5 15.1656 11.5ZM19.1187 20.125C17.0583 20.125 15.05 19.6656 13.0937 18.7469C11.1368 17.8288 9.40381 16.6149 7.89475 15.1052C6.38506 13.5962 5.17117 11.8632 4.25308 9.90629C3.33436 7.95001 2.875 5.94167 2.875 3.88125C2.875 3.59375 2.97083 3.35417 3.1625 3.1625C3.35417 2.97083 3.59375 2.875 3.88125 2.875H7.7625C7.98611 2.875 8.18576 2.94687 8.36146 3.09062C8.53715 3.23437 8.64097 3.41806 8.67292 3.64167L9.29583 6.99583C9.32778 7.21944 9.32394 7.42293 9.28433 7.60629C9.24408 7.79029 9.15208 7.95417 9.00833 8.09792L6.70833 10.4458C7.37917 11.5958 8.21771 12.674 9.22396 13.6802C10.2302 14.6865 11.3403 15.5569 12.5542 16.2917L14.8062 14.0396C14.95 13.8958 15.1378 13.7879 15.3698 13.7157C15.601 13.6441 15.8285 13.6243 16.0521 13.6562L19.3583 14.3271C19.5819 14.375 19.7656 14.4827 19.9094 14.65C20.0531 14.8181 20.125 15.0139 20.125 15.2375V19.1187C20.125 19.4062 20.0292 19.6458 19.8375 19.8375C19.6458 20.0292 19.4062 20.125 19.1187 20.125ZM5.79792 8.625L7.37917 7.04375L6.94792 4.79167H4.83958C4.91944 5.44653 5.03125 6.0934 5.175 6.73229C5.31875 7.37118 5.52639 8.00208 5.79792 8.625ZM18.2083 18.1604V16.0521L15.9562 15.5729L14.375 17.1542C14.9979 17.4257 15.6288 17.6493 16.2677 17.825C16.9066 18.0007 17.5535 18.1125 18.2083 18.1604Z" fill="white"/>
</svg>
