<svg width="72" height="105" viewBox="0 0 72 105" fill="none" xmlns="http://www.w3.org/2000/svg">
<path d="M36 73.1104L41.04 65.7993L35.28 57.4439H50.4V46.9995H35.28L41.04 38.6441L36 31.333L21.6 52.2217L36 73.1104ZM36 104.443C31.02 104.443 26.34 103.072 21.96 100.328C17.58 97.5884 13.77 93.8685 10.53 89.1686C7.29 84.4686 4.7256 78.9418 2.8368 72.5882C0.9456 66.2345 0 59.4457 0 52.2217C0 44.9977 0.9456 38.2089 2.8368 31.8552C4.7256 25.5016 7.29 19.9748 10.53 15.2748C13.77 10.5749 17.58 6.85323 21.96 4.10985C26.34 1.36995 31.02 0 36 0C40.98 0 45.66 1.36995 50.04 4.10985C54.42 6.85323 58.23 10.5749 61.47 15.2748C64.71 19.9748 67.2744 25.5016 69.1632 31.8552C71.0544 38.2089 72 44.9977 72 52.2217C72 59.4457 71.0544 66.2345 69.1632 72.5882C67.2744 78.9418 64.71 84.4686 61.47 89.1686C58.23 93.8685 54.42 97.5884 50.04 100.328C45.66 103.072 40.98 104.443 36 104.443ZM36 93.9991C44.04 93.9991 50.85 89.9519 56.43 81.8575C62.01 73.7631 64.8 63.8845 64.8 52.2217C64.8 40.5589 62.01 30.6802 56.43 22.5859C50.85 14.4915 44.04 10.4443 36 10.4443C27.96 10.4443 21.15 14.4915 15.57 22.5859C9.99 30.6802 7.2 40.5589 7.2 52.2217C7.2 63.8845 9.99 73.7631 15.57 81.8575C21.15 89.9519 27.96 93.9991 36 93.9991Z" fill="white"/>
</svg>
