<svg width="23" height="23" viewBox="0 0 23 23" fill="none" xmlns="http://www.w3.org/2000/svg">
<path d="M6.22913 16.7708L13.4166 13.4167L16.7708 6.22917L9.58329 9.58334L6.22913 16.7708ZM11.5 12.4583C11.2284 12.4583 11.001 12.3663 10.8176 12.1823C10.6336 11.999 10.5416 11.7715 10.5416 11.5C10.5416 11.2285 10.6336 11.0007 10.8176 10.8167C11.001 10.6334 11.2284 10.5417 11.5 10.5417C11.7715 10.5417 11.9993 10.6334 12.1833 10.8167C12.3666 11.0007 12.4583 11.2285 12.4583 11.5C12.4583 11.7715 12.3666 11.999 12.1833 12.1823C11.9993 12.3663 11.7715 12.4583 11.5 12.4583ZM11.5 21.0833C10.1743 21.0833 8.92843 20.8316 7.76246 20.3282C6.59649 19.8254 5.58225 19.1427 4.71975 18.2802C3.85725 17.4177 3.1746 16.4035 2.67179 15.2375C2.16835 14.0715 1.91663 12.8257 1.91663 11.5C1.91663 10.1743 2.16835 8.92848 2.67179 7.76251C3.1746 6.59653 3.85725 5.5823 4.71975 4.7198C5.58225 3.8573 6.59649 3.17432 7.76246 2.67088C8.92843 2.16807 10.1743 1.91667 11.5 1.91667C12.8257 1.91667 14.0715 2.16807 15.2375 2.67088C16.4034 3.17432 17.4177 3.8573 18.2802 4.7198C19.1427 5.5823 19.8253 6.59653 20.3281 7.76251C20.8316 8.92848 21.0833 10.1743 21.0833 11.5C21.0833 12.8257 20.8316 14.0715 20.3281 15.2375C19.8253 16.4035 19.1427 17.4177 18.2802 18.2802C17.4177 19.1427 16.4034 19.8254 15.2375 20.3282C14.0715 20.8316 12.8257 21.0833 11.5 21.0833Z" fill="black"/>
</svg>
